<svg id="svg2" xmlns="http://www.w3.org/2000/svg" viewBox="0 0 136.7 167.27"><title>bakla</title><g id="BAKLA"><path d="M32.62,71.89l7.92-8.42,103.51,102c.09,4.82-2.11,7.28-7.18,7.37Z" transform="translate(-8.13 -6.35)" fill="#7a3920"/><path d="M144.32,165.7,40.54,63.47l-7.92,8.42L137.19,173.12C142.26,173,144.41,170.53,144.32,165.7Z" transform="translate(-8.13 -6.35)" fill="none" stroke="#000" stroke-miterlimit="10"/><path d="M42,58.58a6.21,6.21,0,0,1-1.55,4.86l-8.23,8.39a3,3,0,0,1-1.74.88,27,27,0,0,1-6.06.17l16.6-16.6,0,0A5.49,5.49,0,0,1,42,58.58Z" transform="translate(-8.13 -6.35)" fill="#898584"/><path d="M70.65,18a17.2,17.2,0,0,1-.21,7.25c-.37,1.43-1.41,4.41-5.62,8.94a49.32,49.32,0,0,1-14.9,10.64c-3.48,1.48-7.25,2.51-9.1,5.61-.45.76-1.61,2.7-.85,4.43a3.2,3.2,0,0,0,1,1.27l.09.14,0,0-16.6,16.6-.65-.07c-3.69-.42-10.74-1.23-13.79-6.39s-.25-11.74,1-14.68a26.74,26.74,0,0,1,6.51-8.93c7-6.66,13-7.43,20-11.11,4.92-2.57,11.54-7.16,18-16a29,29,0,0,1-5.23,16.85A28.18,28.18,0,0,0,62.82,19.66,27.45,27.45,0,0,0,65.33,8,18.45,18.45,0,0,1,67.8,22.59,9.49,9.49,0,0,0,70.65,18Z" transform="translate(-8.13 -6.35)" fill="#d32f0f"/><path d="M41.08,56.26,41,56.12a3.2,3.2,0,0,1-1-1.27c-.76-1.73.4-3.67.85-4.43,1.85-3.1,5.62-4.13,9.1-5.61a49.32,49.32,0,0,0,14.9-10.64c4.21-4.53,5.25-7.51,5.62-8.94A17.2,17.2,0,0,0,70.65,18a9.49,9.49,0,0,1-2.85,4.61A18.45,18.45,0,0,0,65.33,8a27.45,27.45,0,0,1-2.51,11.62A28.18,28.18,0,0,1,50.35,32.55,29,29,0,0,0,55.58,15.7c-6.46,8.84-13.08,13.43-18,16-7,3.68-13,4.45-20,11.11A26.74,26.74,0,0,0,11,51.74c-1.27,2.94-4.09,9.48-1,14.68s10.1,6,13.79,6.39l.65.07a27,27,0,0,0,6.06-.17,3,3,0,0,0,1.74-.88l8.23-8.39A6.21,6.21,0,0,0,42,58.58,5.49,5.49,0,0,0,41.08,56.26Z" transform="translate(-8.13 -6.35)" fill="none" stroke="#000" stroke-miterlimit="10"/><polyline points="32.92 49.93 16.32 66.53 16.23 66.62" fill="none" stroke="#000" stroke-miterlimit="10"/><path d="M67.94,22.22c-.26.94-.85,2.92-1.43,4.43a32,32,0,0,1-5.83,10.17,31.24,31.24,0,0,1-13.36,9" transform="translate(-8.13 -6.35)" fill="none" stroke="#000" stroke-miterlimit="10"/><path d="M27.67,65.15c-1.09,0-6.53.31-8.28-3-2.35-4.46,3.7-11.08,5.24-12.77,2.74-3,5.32-4.44,8.68-6.38,4-2.32,9.83-5.8,17-10.45" transform="translate(-8.13 -6.35)" fill="none" stroke="#000" stroke-miterlimit="10"/></g></svg>