<svg id="svg2" xmlns="http://www.w3.org/2000/svg" viewBox="0 0 125.65 149.04"><title>grb</title><g id="GRB"><path id="path44" d="M96.1,25.45,75.84,57,65.73,41.28l-23.15,41c-5.57,8.5-8.51,19.91-8.51,30.37,0,17.27,5.64,28.28,17.63,40.82C64.83,167.09,77.21,172.69,96.1,173c18.92-.31,31.38-5.87,44.5-19.55,12-12.54,17.64-23.55,17.64-40.82,0-10.46-2.94-21.87-8.51-30.37l-23.15-41L116.43,57,96.21,25.45H96.1" transform="translate(-33.33 -24.71)" fill="#ff9700"/><path id="path46" d="M96.1,25.45l.62.39L76.51,57.46l-.67.94-.59-.94L65.14,41.67l.59-.39.67.35-23.2,41v0l0,0c-5.44,8.31-8.34,19.63-8.34,29.94,0,17.12,5.48,27.85,17.39,40.27,13.05,13.6,25.12,19,43.92,19.36l0,.74v-.74c18.8-.31,30.91-5.76,44-19.36,11.95-12.42,17.43-23.15,17.43-40.27,0-10.31-2.94-21.63-8.34-29.94l0,0v0l-23.2-41,.67-.35.62.39L117.06,57.46l-.63.94-.63-.94L95.55,25.84l.66-.39v.74H96.1v-.74l.62.39-.62-.39v-.74h.5l.2.35,20.26,31.58-.63.39-.63-.39,10.11-15.79.67-1,.62,1.06,23.2,41-.67.35.63-.39C156,90.49,159,102.05,159,112.63c0,17.47-5.76,28.75-17.87,41.29-13.16,13.79-25.93,19.55-45,19.83h0c-19.09-.28-31.74-6-44.94-19.83-12-12.54-17.83-23.82-17.83-41.29,0-10.58,3-22.14,8.62-30.76l.63.39L42,81.91l23.15-41,.59-1.06.67,1L76.51,56.64l-.67.39-.59-.39L95.51,25.06l.19-.35h.4v.74" transform="translate(-33.33 -24.71)"/><g id="trobojnca"><path id="path50" d="M46.32,99.79a35.32,35.32,0,0,0-3.41,14.86,35.67,35.67,0,0,0,2.78,16.53H149a35.67,35.67,0,0,0,2.78-16.53,36.38,36.38,0,0,0-3.38-14.86H46.32" transform="translate(-33.33 -24.71)" fill="#005ce5"/><path id="path52" d="M46.32,99.79l.63.28a34.63,34.63,0,0,0-3.33,14.61c0,.88-.08,1.68-.08,2.45A33.68,33.68,0,0,0,46.36,131l-.67.21v-.63H149v.63l-.67-.21a33.68,33.68,0,0,0,2.82-13.84c0-.77,0-1.57,0-2.45a35.29,35.29,0,0,0-3.37-14.61l.66-.28v.67H46.32v-.67l.63.28-.63-.28v-.62H148.84l.19.38a36.29,36.29,0,0,1,3.44,15.1c0,.84.08,1.71.08,2.48a36.07,36.07,0,0,1-2.89,14.33l-.15.38H45.21l-.19-.38a36.07,36.07,0,0,1-2.89-14.33c0-.77,0-1.64.08-2.48a36.15,36.15,0,0,1,3.45-15.1l.18-.38h.48v.62" transform="translate(-33.33 -24.71)"/><path id="path56" d="M97.94,46.51,116.15,74.2,125,60.76l.58-.88.59.88,20.61,34.15.54,1H47.38l.58-1L68.53,60.76l.55-.88.62.88L78.49,74.2,96.74,46.51l.59-.83Z" transform="translate(-33.33 -24.71)" fill="#fff" stroke="#000" stroke-miterlimit="10" stroke-width="1.13"/><path id="path58" d="M97.28,135.26H48.14c3.12,8.13,8.53,14.75,17.32,21A52.06,52.06,0,0,0,97.28,166.4a52.3,52.3,0,0,0,31.94-10.15c8.79-6.24,14.2-12.86,17.32-21H97.28" transform="translate(-33.33 -24.71)" fill="red"/><path id="path60" d="M97.28,135.26v.66H48.14v-.66l.67-.21c3,8,8.34,14.47,17.06,20.65a51.08,51.08,0,0,0,31.41,10,51.48,51.48,0,0,0,31.53-10c8.68-6.18,14-12.63,17-20.65l.7.21v.66H97.28V134.6H147.5l-.29.9c-3.15,8.23-8.72,15-17.58,21.24a52.67,52.67,0,0,1-32.35,10.32,52.69,52.69,0,0,1-32.23-10.32c-8.9-6.28-14.42-13-17.54-21.24l-.33-.9h50.1v.66" transform="translate(-33.33 -24.71)"/></g></g></svg>