<svg id="svg2" xmlns="http://www.w3.org/2000/svg" viewBox="0 0 189.96 167.4"><title>logo SG</title><g id="SKIRA"><path d="M162.48,50c1.37-1.35,9.46,6.91,8.08,8.25L55.77,173.09c-5.07,0-7.28-2.45-7.28-7.28Z" transform="translate(-8.13 -6.35)" fill="#7a3920"/><path d="M48.49,165.81,162.48,50c1.37-1.35,9.46,6.91,8.08,8.25L55.77,173.09C50.71,173.09,48.49,170.64,48.49,165.81Z" transform="translate(-8.13 -6.35)" fill="none" stroke="#000" stroke-miterlimit="10"/><path d="M195.41,77.1c.88.42,1.6.74,2.05.94-3.91,10.82-11,17.44-20.77,21.62-2.39-11.39-10.62-25.1-27.74-39-1.44-13.75-16.17-24.26-30.81-28.34,14.35-.28,23.8,3.44,29.72,6.82C164.58,48.69,170.36,65.25,195.41,77.1Z" transform="translate(-8.13 -6.35)" fill="#898584"/><path d="M149,60.68c17.13,13.88,25.35,27.59,27.74,39,9.77-4.18,16.86-10.8,20.77-21.62-.45-.2-1.17-.52-2.05-.94-25-11.85-30.83-28.41-47.55-37.94-5.92-3.38-15.37-7.1-29.72-6.82C132.78,36.42,147.51,46.93,149,60.68Z" transform="translate(-8.13 -6.35)" fill="none" stroke="#000" stroke-miterlimit="10"/></g><g id="BAKLA"><path d="M32.62,71.89l7.92-8.42,103.51,102c.09,4.82-2.11,7.28-7.18,7.37Z" transform="translate(-8.13 -6.35)" fill="#7a3920"/><path d="M144.32,165.7,40.54,63.47l-7.92,8.42L137.19,173.12C142.26,173,144.41,170.53,144.32,165.7Z" transform="translate(-8.13 -6.35)" fill="none" stroke="#000" stroke-miterlimit="10"/><path d="M42,58.58a6.21,6.21,0,0,1-1.55,4.86l-8.23,8.39a3,3,0,0,1-1.74.88,27,27,0,0,1-6.06.17l16.6-16.6,0,0A5.49,5.49,0,0,1,42,58.58Z" transform="translate(-8.13 -6.35)" fill="#898584"/><path d="M70.65,18a17.2,17.2,0,0,1-.21,7.25c-.37,1.43-1.41,4.41-5.62,8.94a49.32,49.32,0,0,1-14.9,10.64c-3.48,1.48-7.25,2.51-9.1,5.61-.45.76-1.61,2.7-.85,4.43a3.2,3.2,0,0,0,1,1.27l.09.14,0,0-16.6,16.6-.65-.07c-3.69-.42-10.74-1.23-13.79-6.39s-.25-11.74,1-14.68a26.74,26.74,0,0,1,6.51-8.93c7-6.66,13-7.43,20-11.11,4.92-2.57,11.54-7.16,18-16a29,29,0,0,1-5.23,16.85A28.18,28.18,0,0,0,62.82,19.66,27.45,27.45,0,0,0,65.33,8,18.45,18.45,0,0,1,67.8,22.59,9.49,9.49,0,0,0,70.65,18Z" transform="translate(-8.13 -6.35)" fill="#d32f0f"/><path d="M41.08,56.26,41,56.12a3.2,3.2,0,0,1-1-1.27c-.76-1.73.4-3.67.85-4.43,1.85-3.1,5.62-4.13,9.1-5.61a49.32,49.32,0,0,0,14.9-10.64c4.21-4.53,5.25-7.51,5.62-8.94A17.2,17.2,0,0,0,70.65,18a9.49,9.49,0,0,1-2.85,4.61A18.45,18.45,0,0,0,65.33,8a27.45,27.45,0,0,1-2.51,11.62A28.18,28.18,0,0,1,50.35,32.55,29,29,0,0,0,55.58,15.7c-6.46,8.84-13.08,13.43-18,16-7,3.68-13,4.45-20,11.11A26.74,26.74,0,0,0,11,51.74c-1.27,2.94-4.09,9.48-1,14.68s10.1,6,13.79,6.39l.65.07a27,27,0,0,0,6.06-.17,3,3,0,0,0,1.74-.88l8.23-8.39A6.21,6.21,0,0,0,42,58.58,5.49,5.49,0,0,0,41.08,56.26Z" transform="translate(-8.13 -6.35)" fill="none" stroke="#000" stroke-miterlimit="10"/><polyline points="32.92 49.93 16.32 66.53 16.23 66.62" fill="none" stroke="#000" stroke-miterlimit="10"/><path d="M67.94,22.22c-.26.94-.85,2.92-1.43,4.43a32,32,0,0,1-5.83,10.17,31.24,31.24,0,0,1-13.36,9" transform="translate(-8.13 -6.35)" fill="none" stroke="#000" stroke-miterlimit="10"/><path d="M27.67,65.15c-1.09,0-6.53.31-8.28-3-2.35-4.46,3.7-11.08,5.24-12.77,2.74-3,5.32-4.44,8.68-6.38,4-2.32,9.83-5.8,17-10.45" transform="translate(-8.13 -6.35)" fill="none" stroke="#000" stroke-miterlimit="10"/></g><g id="GRB"><path id="path44" d="M96.1,25.45,75.84,57,65.73,41.28l-23.15,41c-5.57,8.5-8.51,19.91-8.51,30.37,0,17.27,5.64,28.28,17.63,40.82C64.83,167.09,77.21,172.69,96.1,173c18.92-.31,31.38-5.87,44.5-19.55,12-12.54,17.64-23.55,17.64-40.82,0-10.46-2.94-21.87-8.51-30.37l-23.15-41L116.43,57,96.21,25.45H96.1" transform="translate(-8.13 -6.35)" fill="#ff9700"/><path id="path46" d="M96.1,25.45l.62.39L76.51,57.46l-.67.94-.59-.94L65.14,41.67l.59-.39.67.35-23.2,41v0l0,0c-5.44,8.31-8.34,19.63-8.34,29.94,0,17.12,5.48,27.85,17.39,40.27,13.05,13.6,25.12,19,43.92,19.36l0,.74v-.74c18.8-.31,30.91-5.76,44-19.36,11.95-12.42,17.43-23.15,17.43-40.27,0-10.31-2.94-21.63-8.34-29.94l0,0v0l-23.2-41,.67-.35.62.39L117.06,57.46l-.63.94-.63-.94L95.55,25.84l.66-.39v.74H96.1v-.74l.62.39-.62-.39v-.74h.5l.2.35,20.26,31.58-.63.39-.63-.39,10.11-15.79.67-1,.62,1.06,23.2,41-.67.35.63-.39C156,90.49,159,102.05,159,112.63c0,17.47-5.76,28.75-17.87,41.29-13.16,13.79-25.93,19.55-45,19.83h0c-19.09-.28-31.74-6-44.94-19.83-12-12.54-17.83-23.82-17.83-41.29,0-10.58,3-22.14,8.62-30.76l.63.39L42,81.91l23.15-41,.59-1.06.67,1L76.51,56.64l-.67.39-.59-.39L95.51,25.06l.19-.35h.4v.74" transform="translate(-8.13 -6.35)"/><g id="trobojnca"><path id="path50" d="M46.32,99.79a35.32,35.32,0,0,0-3.41,14.86,35.67,35.67,0,0,0,2.78,16.53H149a35.67,35.67,0,0,0,2.78-16.53,36.38,36.38,0,0,0-3.38-14.86H46.32" transform="translate(-8.13 -6.35)" fill="#005ce5"/><path id="path52" d="M46.32,99.79l.63.28a34.63,34.63,0,0,0-3.33,14.61c0,.88-.08,1.68-.08,2.45A33.68,33.68,0,0,0,46.36,131l-.67.21v-.63H149v.63l-.67-.21a33.68,33.68,0,0,0,2.82-13.84c0-.77,0-1.57,0-2.45a35.29,35.29,0,0,0-3.37-14.61l.66-.28v.67H46.32v-.67l.63.28-.63-.28v-.62H148.84l.19.38a36.29,36.29,0,0,1,3.44,15.1c0,.84.08,1.71.08,2.48a36.07,36.07,0,0,1-2.89,14.33l-.15.38H45.21l-.19-.38a36.07,36.07,0,0,1-2.89-14.33c0-.77,0-1.64.08-2.48a36.15,36.15,0,0,1,3.45-15.1l.18-.38h.48v.62" transform="translate(-8.13 -6.35)"/><path id="path56" d="M97.94,46.51,116.15,74.2,125,60.76l.58-.88.59.88,20.61,34.15.54,1H47.38l.58-1L68.53,60.76l.55-.88.62.88L78.49,74.2,96.74,46.51l.59-.83Z" transform="translate(-8.13 -6.35)" fill="#fff" stroke="#000" stroke-miterlimit="10" stroke-width="1.13"/><path id="path58" d="M97.28,135.26H48.14c3.12,8.13,8.53,14.75,17.32,21A52.06,52.06,0,0,0,97.28,166.4a52.3,52.3,0,0,0,31.94-10.15c8.79-6.24,14.2-12.86,17.32-21H97.28" transform="translate(-8.13 -6.35)" fill="red"/><path id="path60" d="M97.28,135.26v.66H48.14v-.66l.67-.21c3,8,8.34,14.47,17.06,20.65a51.08,51.08,0,0,0,31.41,10,51.48,51.48,0,0,0,31.53-10c8.68-6.18,14-12.63,17-20.65l.7.21v.66H97.28V134.6H147.5l-.29.9c-3.15,8.23-8.72,15-17.58,21.24a52.67,52.67,0,0,1-32.35,10.32,52.69,52.69,0,0,1-32.23-10.32c-8.9-6.28-14.42-13-17.54-21.24l-.33-.9h50.1v.66" transform="translate(-8.13 -6.35)"/></g></g></svg>