<svg id="svg2" xmlns="http://www.w3.org/2000/svg" viewBox="0 0 200 182.6"><title>Sign_of_Slovenian_Army</title><g id="SKIRA"><path d="M162.48,50c1.37-1.35,9.46,6.91,8.08,8.25L55.77,173.09c-5.07,0-7.28-2.45-7.28-7.28Z" fill="#7a3920"/><path d="M48.49,165.81,162.48,50c1.37-1.35,9.46,6.91,8.08,8.25L55.77,173.09C50.71,173.09,48.49,170.64,48.49,165.81Z" fill="none" stroke="#000" stroke-miterlimit="10"/><path d="M195.41,77.1c.88.42,1.6.74,2.05.94-3.91,10.82-11,17.44-20.77,21.62-2.39-11.39-10.62-25.1-27.74-39-1.44-13.75-16.17-24.26-30.81-28.34,14.35-.28,23.8,3.44,29.72,6.82C164.58,48.69,170.36,65.25,195.41,77.1Z" fill="#898584"/><path d="M149,60.68c17.13,13.88,25.35,27.59,27.74,39,9.77-4.18,16.86-10.8,20.77-21.62-.45-.2-1.17-.52-2.05-.94-25-11.85-30.83-28.41-47.55-37.94-5.92-3.38-15.37-7.1-29.72-6.82C132.78,36.42,147.51,46.93,149,60.68Z" fill="none" stroke="#000" stroke-miterlimit="10"/></g></svg>